<svg version="1.1" xmlns="http://www.w3.org/2000/svg" xmlns:xlink="http://www.w3.org/1999/xlink" x="0px" y="0px"
	 width="50px" height="50px" viewBox="0 0 50 50" enable-background="new 0 0 50 50" xml:space="preserve">
<path d="M42.738,22.488H13.335l8.704-8.747c0.996-0.996,0.996-2.599,0-3.552c-0.476-0.476-1.125-0.735-1.775-0.735
	c-0.693,0-1.299,0.26-1.775,0.735L5.497,23.225c-0.996,0.995-0.996,2.598,0,3.551L18.488,39.81c0.476,0.477,1.083,0.736,1.775,0.736
	s1.299-0.26,1.775-0.736c0.996-0.996,0.996-2.598,0-3.551l-8.704-8.746h29.403c1.386,0,2.512-1.126,2.512-2.513
	C45.25,23.614,44.124,22.489,42.738,22.488L42.738,22.488z"/>
</svg>
