<svg version="1.1" xmlns="http://www.w3.org/2000/svg" xmlns:xlink="http://www.w3.org/1999/xlink" x="0px" y="0px"
	 width="50px" height="50px" viewBox="0 0 50 50" enable-background="new 0 0 50 50" xml:space="preserve">
<path d="M37.275,12.947c0-2.677-2.182-4.858-4.857-4.858c-2.678,0-4.859,2.182-4.859,4.858c0,1.978,1.193,3.684,2.893,4.438v2.485
	l-5.463,5.463l-5.428-5.426v-2.522c1.694-0.761,2.881-2.46,2.881-4.432c0-2.676-2.182-4.857-4.857-4.857
	c-2.678,0-4.859,2.175-4.859,4.852c0,1.978,1.192,3.684,2.893,4.438v4.092h0.063l-0.063,0.063l7.418,7.415v3.66
	c-1.705,0.754-2.893,2.461-2.893,4.438c0,2.676,2.182,4.859,4.858,4.859c2.675,0,4.857-2.184,4.857-4.859
	c0-1.971-1.186-3.678-2.881-4.43v-3.703l7.381-7.38l-0.061-0.063h0.098v-4.098C36.088,16.618,37.275,14.919,37.275,12.947
	L37.275,12.947z M17.582,10.499c1.348,0,2.448,1.101,2.448,2.448s-1.101,2.448-2.448,2.448c-1.346,0-2.447-1.101-2.447-2.448
	S16.236,10.499,17.582,10.499z M25,39.501c-1.349,0-2.449-1.102-2.449-2.449s1.101-2.447,2.449-2.447c1.347,0,2.447,1.1,2.447,2.447
	S26.348,39.501,25,39.501z M32.418,15.395c-1.35,0-2.449-1.1-2.449-2.447c0-1.349,1.1-2.448,2.449-2.448
	c1.348,0,2.447,1.1,2.447,2.448C34.865,14.295,33.766,15.395,32.418,15.395z"/>
</svg>
