<svg version="1.1" xmlns="http://www.w3.org/2000/svg" xmlns:xlink="http://www.w3.org/1999/xlink" x="0px" y="0px"
	 width="50px" height="50px" viewBox="0 0 50 50" enable-background="new 0 0 50 50" xml:space="preserve">
<path d="M41.224,20.411c-0.01-2.192-0.766-4.315-2.145-6.019c0.469-1.948,0.322-3.993-0.418-5.855
	c-0.146-0.358-0.445-0.632-0.814-0.747c-0.522-0.179-2.502-0.515-6.535,2.098v0.001c-1.734-0.458-3.523-0.674-5.316-0.642
	c-1.797-0.032-3.589,0.183-5.325,0.642c-4.138-2.674-6.289-2.241-6.723-2.113c-0.37,0.119-0.67,0.398-0.813,0.761
	c-0.742,1.856-0.895,3.896-0.433,5.841c-1.425,1.695-2.184,3.85-2.136,6.064c0,8.261,4.727,10.755,9.059,11.636
	c-0.223,0.545-0.376,1.113-0.455,1.695c-0.008,0.063-0.008,0.125,0,0.188v2.285c-3.944,0.328-4.788-1.979-4.869-2.242v0.002
	c-0.021-0.061-0.043-0.121-0.068-0.18c-0.762-1.553-2.103-2.746-3.734-3.324c-0.685-0.227-1.426,0.143-1.653,0.826
	c-0.229,0.684,0.14,1.426,0.824,1.654c0.905,0.328,1.659,0.973,2.121,1.814c0.523,1.695,2.66,4.377,7.365,4.078v2.15
	c0,0.723,0.584,1.307,1.306,1.307s1.308-0.584,1.308-1.307v-6.967c0.099-0.762,0.431-1.475,0.948-2.039
	c0.371-0.348,0.506-0.879,0.345-1.361c-0.16-0.48-0.588-0.826-1.092-0.879c-4.555-0.531-8.768-2.031-8.768-9.389h-0.001
	c-0.061-1.795,0.634-3.535,1.913-4.796c0.347-0.373,0.462-0.906,0.299-1.389c-0.44-1.277-0.469-2.662-0.082-3.958
	c1.603,0.363,3.108,1.068,4.413,2.069c0.34,0.225,0.763,0.282,1.149,0.157c1.66-0.505,3.391-0.74,5.124-0.694
	c1.732-0.046,3.46,0.188,5.117,0.694c0.387,0.126,0.81,0.069,1.149-0.157c1.257-0.963,2.693-1.662,4.227-2.054
	c0.381,1.31,0.347,2.706-0.097,3.995c-0.149,0.44-0.052,0.923,0.254,1.271c1.236,1.32,1.937,3.053,1.965,4.863
	c0,7.34-4.429,8.866-8.769,9.389c-0.532,0.059-0.973,0.438-1.112,0.953c-0.138,0.518,0.055,1.066,0.484,1.383
	c0.464,0.352,1.002,1.338,1.002,2.988v5.914c0,0.723,0.584,1.309,1.306,1.309c0.723,0,1.308-0.586,1.308-1.309v-5.914
	c0.013-1.041-0.177-2.074-0.561-3.041C35.801,31.315,41.224,29.009,41.224,20.411L41.224,20.411z"/>
</svg>
