<svg version="1.1" xmlns="http://www.w3.org/2000/svg" xmlns:xlink="http://www.w3.org/1999/xlink" x="0px" y="0px"
	 width="50px" height="50px" viewBox="0 0 50 50" enable-background="new 0 0 50 50" xml:space="preserve">
<path d="M37.166,18.923c0.066-1.688-0.219-3.371-0.838-4.941c-0.621-1.571-1.561-2.996-2.764-4.182
	c-1.109-1.156-2.438-2.08-3.91-2.719C28.186,6.441,26.604,6.099,25,6.074c-1.604,0.024-3.186,0.367-4.655,1.006
	c-1.471,0.639-2.8,1.563-3.91,2.719c-1.202,1.187-2.143,2.611-2.762,4.182c-0.62,1.571-0.906,3.253-0.839,4.941
	c0.154,3.412,1.38,6.688,3.503,9.365l2.961,3.834c-1.113,0.365-2.159,0.906-3.099,1.604c-1.419,1.092-2.168,2.424-2.168,3.852
	c0,1.838,1.241,3.508,3.497,4.697c2.325,1.133,4.886,1.697,7.472,1.648c2.585,0.051,5.148-0.516,7.472-1.648
	c2.256-1.189,3.498-2.859,3.498-4.697c0-1.428-0.75-2.76-2.168-3.852l0,0c-0.939-0.697-1.986-1.238-3.098-1.604l2.961-3.834
	C35.787,25.611,37.012,22.334,37.166,18.923L37.166,18.923z M33.605,37.577c0,1.883-3.533,3.98-8.605,3.98
	c-5.073,0-8.605-2.098-8.605-3.98c0-1.363,1.794-2.734,4.445-3.453l3.224,4.176l0,0c0.224,0.289,0.569,0.459,0.937,0.459
	c0.366,0,0.712-0.17,0.936-0.459l3.224-4.176C31.813,34.843,33.605,36.214,33.605,37.577L33.605,37.577z M25,35.64l-6.793-8.797
	c-3.968-5.142-4.009-11.462-0.1-15.371c1.801-1.889,4.283-2.98,6.893-3.033c2.609,0.053,5.091,1.144,6.892,3.033
	c3.91,3.911,3.869,10.229-0.1,15.371L25,35.64z M25,12.88c-1.684,0-3.298,0.668-4.488,1.859c-1.19,1.19-1.86,2.804-1.86,4.488
	c0,1.683,0.67,3.297,1.86,4.487c1.19,1.19,2.805,1.859,4.487,1.859c1.684,0,3.297-0.669,4.489-1.859
	c1.189-1.19,1.857-2.805,1.857-4.488c-0.002-1.683-0.67-3.296-1.859-4.485C28.295,13.551,26.682,12.882,25,12.88z M25,23.208
	c-1.057,0-2.069-0.419-2.815-1.166c-0.747-0.747-1.167-1.759-1.167-2.815s0.42-2.068,1.167-2.815
	c0.746-0.747,1.759-1.166,2.814-1.166c1.055,0,2.069,0.419,2.815,1.166s1.166,1.759,1.166,2.815c0,1.055-0.42,2.067-1.166,2.813
	S26.055,23.206,25,23.208L25,23.208z"/>
</svg>
