<svg version="1.1" xmlns="http://www.w3.org/2000/svg" xmlns:xlink="http://www.w3.org/1999/xlink" x="0px" y="0px"
	 width="50px" height="50px" viewBox="0 0 50 50" enable-background="new 0 0 50 50" xml:space="preserve">
<path d="M33.199,28.865c-0.24,0.252-0.354,0.598-0.309,0.945l1.297,9.561l-8.691-4.188c-0.314-0.152-0.679-0.152-0.993,0
	l-8.692,4.186l1.296-9.561c0.047-0.346-0.064-0.691-0.305-0.943l-6.667-6.972l9.492-1.722c0.342-0.062,0.639-0.276,0.804-0.583
	l4.571-8.497l4.569,8.497c0.166,0.307,0.462,0.521,0.806,0.584l9.49,1.721L33.199,28.865z M42.367,20.021l-11.043-2.003
	l-5.316-9.884c-0.132-0.244-0.346-0.432-0.606-0.53c-0.259-0.097-0.545-0.097-0.803,0c-0.26,0.099-0.476,0.286-0.607,0.53
	l-5.316,9.884L7.633,20.021c-0.273,0.049-0.519,0.195-0.691,0.412c-0.173,0.216-0.262,0.488-0.25,0.765
	c0.012,0.276,0.127,0.539,0.317,0.74l7.757,8.111L13.26,41.17l0,0c-0.037,0.275,0.025,0.553,0.179,0.785
	c0.152,0.23,0.384,0.398,0.651,0.473c0.266,0.072,0.551,0.047,0.8-0.072l10.108-4.873l10.111,4.873
	c0.249,0.119,0.533,0.145,0.801,0.072c0.269-0.074,0.5-0.242,0.649-0.473c0.156-0.232,0.219-0.51,0.18-0.785l-1.507-11.121
	l7.758-8.111c0.19-0.201,0.304-0.463,0.316-0.74c0.012-0.277-0.076-0.548-0.249-0.765C42.886,20.217,42.641,20.07,42.367,20.021
	L42.367,20.021z"/>
</svg>
